<svg width="25" height="25" viewBox="0 0 25 25" fill="none" xmlns="http://www.w3.org/2000/svg">
<path opacity="0.12" d="M13.3 3.5L15.0342 8.00886C15.3162 8.74209 15.4572 9.10871 15.6765 9.41709C15.8708 9.6904 16.1096 9.92919 16.3829 10.1235C16.6913 10.3428 17.0579 10.4838 17.7911 10.7658L22.3 12.5L17.7911 14.2342C17.0579 14.5162 16.6913 14.6572 16.3829 14.8765C16.1096 15.0708 15.8708 15.3096 15.6765 15.5829C15.4572 15.8913 15.3162 16.2579 15.0342 16.9911L13.3 21.5L11.5658 16.9911C11.2838 16.2579 11.1428 15.8913 10.9235 15.5829C10.7292 15.3096 10.4904 15.0708 10.2171 14.8765C9.9087 14.6572 9.54209 14.5162 8.80886 14.2342L4.3 12.5L8.80886 10.7658C9.54209 10.4838 9.9087 10.3428 10.2171 10.1235C10.4904 9.92919 10.7292 9.6904 10.9235 9.41709C11.1428 9.10871 11.2838 8.74209 11.5658 8.00886L13.3 3.5Z" fill="#D0D5DD"/>
<path d="M4.8 22.5V17.5M4.8 7.5V2.5M2.3 5H7.3M2.3 20H7.3M13.3 3.5L11.5658 8.00886C11.2838 8.74209 11.1428 9.10871 10.9235 9.41709C10.7292 9.6904 10.4904 9.92919 10.2171 10.1235C9.9087 10.3428 9.54209 10.4838 8.80886 10.7658L4.3 12.5L8.80886 14.2342C9.54209 14.5162 9.9087 14.6572 10.2171 14.8765C10.4904 15.0708 10.7292 15.3096 10.9235 15.5829C11.1428 15.8913 11.2838 16.2579 11.5658 16.9911L13.3 21.5L15.0342 16.9911C15.3162 16.2579 15.4572 15.8913 15.6765 15.5829C15.8708 15.3096 16.1096 15.0708 16.3829 14.8765C16.6913 14.6572 17.0579 14.5162 17.7911 14.2342L22.3 12.5L17.7911 10.7658C17.0579 10.4838 16.6913 10.3428 16.3829 10.1235C16.1096 9.92919 15.8708 9.6904 15.6765 9.41709C15.4572 9.10871 15.3162 8.74209 15.0342 8.00886L13.3 3.5Z" stroke="#D0D5DD" stroke-width="2" stroke-linecap="round" stroke-linejoin="round"/>
</svg>
