<svg width="25" height="25" viewBox="0 0 25 25" fill="none" xmlns="http://www.w3.org/2000/svg">
<path opacity="0.12" d="M12.9 22.5C14.5568 22.5 15.9 21.1569 15.9 19.5H9.89999C9.89999 21.1569 11.2431 22.5 12.9 22.5Z" fill="#D0D5DD"/>
<path d="M15.8997 19.5C15.8997 21.1569 14.5566 22.5 12.8997 22.5C11.2429 22.5 9.89971 21.1569 9.89971 19.5M14.6962 6.73856C15.1317 6.28864 15.3997 5.67562 15.3997 5C15.3997 3.61929 14.2804 2.5 12.8997 2.5C11.519 2.5 10.3997 3.61929 10.3997 5C10.3997 5.67562 10.6677 6.28864 11.1032 6.73856M18.8997 11.7C18.8997 10.3209 18.2676 8.99823 17.1424 8.02304C16.0171 7.04786 14.491 6.5 12.8997 6.5C11.3084 6.5 9.78229 7.04786 8.65707 8.02304C7.53186 8.99823 6.89971 10.3209 6.89971 11.7C6.89971 13.9818 6.33385 15.6506 5.62778 16.8447C4.82305 18.2056 4.42069 18.8861 4.43658 19.0486C4.45476 19.2346 4.48823 19.2933 4.63905 19.4036C4.77089 19.5 5.43322 19.5 6.7579 19.5H19.0415C20.3662 19.5 21.0285 19.5 21.1604 19.4036C21.3112 19.2933 21.3447 19.2346 21.3629 19.0486C21.3787 18.8861 20.9764 18.2056 20.1717 16.8447C19.4656 15.6506 18.8997 13.9818 18.8997 11.7Z" stroke="#D0D5DD" stroke-width="2" stroke-linecap="round" stroke-linejoin="round"/>
</svg>
