<svg width="25" height="25" viewBox="0 0 25 25" fill="none" xmlns="http://www.w3.org/2000/svg">
<path opacity="0.12" d="M15.7 2.5H9.3C7.61984 2.5 6.77976 2.5 6.13803 2.82698C5.57354 3.1146 5.1146 3.57354 4.82698 4.13803C4.5 4.77976 4.5 5.61984 4.5 7.3V17.7C4.5 19.3802 4.5 20.2202 4.82698 20.862C5.1146 21.4265 5.57354 21.8854 6.13803 22.173C6.77976 22.5 7.61982 22.5 9.29993 22.5H12.5L20.5 13V7.3C20.5 5.61984 20.5 4.77976 20.173 4.13803C19.8854 3.57354 19.4265 3.1146 18.862 2.82698C18.2202 2.5 17.3802 2.5 15.7 2.5Z" fill="#D0D5DD"/>
<path d="M20.5 13V7.3C20.5 5.61984 20.5 4.77976 20.173 4.13803C19.8854 3.57354 19.4265 3.1146 18.862 2.82698C18.2202 2.5 17.3802 2.5 15.7 2.5H9.3C7.61984 2.5 6.77976 2.5 6.13803 2.82698C5.57354 3.1146 5.1146 3.57354 4.82698 4.13803C4.5 4.77976 4.5 5.61984 4.5 7.3V17.7C4.5 19.3802 4.5 20.2202 4.82698 20.862C5.1146 21.4265 5.57354 21.8854 6.13803 22.173C6.77976 22.5 7.61984 22.5 9.3 22.5H12.5M14.5 11.5H8.5M10.5 15.5H8.5M16.5 7.5H8.5M15 19.5L17 21.5L21.5 17" stroke="#D0D5DD" stroke-width="2" stroke-linecap="round" stroke-linejoin="round"/>
</svg>
