<svg width="25" height="25" viewBox="0 0 25 25" fill="none" xmlns="http://www.w3.org/2000/svg">
<path opacity="0.12" d="M12.7 22.5C18.2228 22.5 22.7 18.0228 22.7 12.5C22.7 6.97715 18.2228 2.5 12.7 2.5C7.17715 2.5 2.7 6.97715 2.7 12.5C2.7 18.0228 7.17715 22.5 12.7 22.5Z" fill="#D0D5DD"/>
<path d="M22.6208 13.765C22.673 13.3507 22.7 12.9285 22.7 12.5C22.7 6.97715 18.2228 2.5 12.7 2.5C7.17715 2.5 2.7 6.97715 2.7 12.5C2.7 18.0228 7.17715 22.5 12.7 22.5C13.1354 22.5 13.5643 22.4722 13.985 22.4182M12.7 6.5V12.5L16.4384 14.3692M19.7 22.5V16.5M16.7 19.5H22.7" stroke="#D0D5DD" stroke-width="2" stroke-linecap="round" stroke-linejoin="round"/>
</svg>
